# xmcd
#
# Track frame offsets:
#	150
#	14873
#	29709
#	45289
#	60028
#	75024
#	90952
#	107234
#	122496
#	137538
#	153538
#	170301
#	185572
#	201432
#	217538
#	232393
#	247802
#	262130
#
# Disc length: 3688 seconds
#
# Revision: 0
# Processed by: cddbd v1.5.1PL0 Copyright (c) Steve Scherf et al.
# Submitted via: audiograbber 1.83.01
#
DISCID=e60e6612
DTITLE=Απόστολος Καλδάρας 2 - Συνθέτες του ρεμπέτικου
DYEAR=1900
DGENRE=
TTITLE0=Τι να σου κάνω που σάγαπώ
TTITLE1=Αλλα λόγια νάγαπιώμαστε
TTITLE2=Οτι βρέξει ας κατεβάσει
TTITLE3=Το αγκάθι
TTITLE4=Τα δώρα
TTITLE5=Το απάτητο βουνό
TTITLE6=Το παράπονο του μάγκα
TTITLE7=Η καρδούλα μου το ξέρει
TTITLE8=Ας με έπνιγε η μάνα μου
TTITLE9=Η στεναχώρια μου
TTITLE10=Εσύ πασά μου φάε και πιέ
TTITLE11=Είπα να σβήσω τα παλιά
TTITLE12=Νειάτα χαμένα
TTITLE13=Απόψε που τα χάλασα
TTITLE14=Δύο γαμπρούς μου προξενεύουν
TTITLE15=Ο μετανάστης
TTITLE16=Μιά σου και μιά μου
TTITLE17=Θα με γράψει η ιστορία
EXTD=
EXTT0=
EXTT1=
EXTT2=
EXTT3=
EXTT4=
EXTT5=
EXTT6=
EXTT7=
EXTT8=
EXTT9=
EXTT10=
EXTT11=
EXTT12=
EXTT13=
EXTT14=
EXTT15=
EXTT16=
EXTT17=
PLAYORDER=
